<?xml version="1.0" encoding="utf-8"?>
<!-- Generator: Adobe Illustrator 23.0.3, SVG Export Plug-In . SVG Version: 6.00 Build 0)  -->
<svg version="1.1" id="Layer_1" xmlns="http://www.w3.org/2000/svg" xmlns:xlink="http://www.w3.org/1999/xlink" x="0px" y="0px"
	 viewBox="0 0 300 200" style="enable-background:new 0 0 300 200;" xml:space="preserve">
<style type="text/css">
	.st0{fill:#FFFFFF;}
</style>
<g>
	<path class="st0" d="M147,40H13C5.8,40,0,34.2,0,27V13C0,5.8,5.8,0,13,0h134c7.2,0,13,5.8,13,13v14C160,34.2,154.2,40,147,40z"/>
	<path class="st0" d="M87,120H13c-7.2,0-13-5.8-13-13V93c0-7.2,5.8-13,13-13h74c7.2,0,13,5.8,13,13v14C100,114.2,94.2,120,87,120z"
		/>
	<path class="st0" d="M287,200h-74c-7.2,0-13-5.8-13-13v-14c0-7.2,5.8-13,13-13h74c7.2,0,13,5.8,13,13v14
		C300,194.2,294.2,200,287,200z"/>
	<path class="st0" d="M147,120h-14c-7.2,0-13-5.8-13-13V93c0-7.2,5.8-13,13-13h14c7.2,0,13,5.8,13,13v14
		C160,114.2,154.2,120,147,120z"/>
	<path class="st0" d="M147,200H13c-7.2,0-13-5.8-13-13v-14c0-7.2,5.8-13,13-13h134c7.2,0,13,5.8,13,13v14
		C160,194.2,154.2,200,147,200z"/>
</g>
</svg>
